<svg width="96" height="96" xmlns="http://www.w3.org/2000/svg" xmlns:xlink="http://www.w3.org/1999/xlink" xml:space="preserve" overflow="hidden"><g><path d="M23 14 73 14 73 82 23 82 23 14ZM17 88 79 88 79 8 17 8 17 88Z"/><path d="M50 23 67 23 67 27 50 27Z"/><path d="M50 39 67 39 67 43 50 43Z"/><path d="M50 71 67 71 67 75 50 75Z"/><path d="M50 55 67 55 67 59 50 59Z"/><path d="M43.8 20.8 41 18 34.4 24.6 31.8 22 29 24.8 34.4 30.2Z"/><path d="M43.8 36.8 41 34 34.4 40.6 31.8 38 29 40.8 34.4 46.2Z"/><path d="M43.8 52.8 41 50 34.4 56.6 31.8 54 29 56.8 34.4 62.2Z"/><path d="M43.8 68.6 41 65.8 34.4 72.4 31.8 69.8 29 72.6 34.4 78Z"/></g></svg>